<mxfile host="app.diagrams.net" agent="Mozilla/5.0 (Windows NT 10.0; Win64; x64) AppleWebKit/537.36 (KHTML, like Gecko) Chrome/131.0.0.0 Safari/537.36" version="25.0.3">
  <diagram name="Page-1" id="KVSeK9rjm0bYbO84o91i">
    <mxGraphModel grid="1" page="1" gridSize="10" guides="1" tooltips="1" connect="1" arrows="1" fold="1" pageScale="1" pageWidth="850" pageHeight="1100" math="0" shadow="0">
      <root>
        <mxCell id="0" />
        <mxCell id="1" parent="0" />
        <mxCell id="_fzZJUct6lHMbTLoicCk-9" value="" style="group" connectable="0" vertex="1" parent="1">
          <mxGeometry x="190" y="57" width="475" height="970" as="geometry" />
        </mxCell>
        <mxCell id="_fzZJUct6lHMbTLoicCk-4" style="edgeStyle=orthogonalEdgeStyle;rounded=0;orthogonalLoop=1;jettySize=auto;html=1;entryX=0.5;entryY=0;entryDx=0;entryDy=0;" edge="1" parent="_fzZJUct6lHMbTLoicCk-9" source="SiOPo3hdNnwG7R91HLxE-1" target="SiOPo3hdNnwG7R91HLxE-3">
          <mxGeometry relative="1" as="geometry" />
        </mxCell>
        <mxCell id="SiOPo3hdNnwG7R91HLxE-1" value="" style="swimlane;startSize=0;" vertex="1" parent="_fzZJUct6lHMbTLoicCk-9">
          <mxGeometry x="135" width="200" height="200" as="geometry" />
        </mxCell>
        <mxCell id="SiOPo3hdNnwG7R91HLxE-2" value="&lt;font style=&quot;font-size: 36px;&quot;&gt;Front End&lt;/font&gt;&lt;div&gt;&lt;font style=&quot;font-size: 36px;&quot;&gt;Website&lt;/font&gt;&lt;/div&gt;&lt;div&gt;&lt;font style=&quot;font-size: 36px;&quot;&gt;html/js&lt;/font&gt;&lt;/div&gt;" style="text;html=1;align=center;verticalAlign=middle;resizable=0;points=[];autosize=1;strokeColor=none;fillColor=none;" vertex="1" parent="SiOPo3hdNnwG7R91HLxE-1">
          <mxGeometry x="10" y="25" width="180" height="140" as="geometry" />
        </mxCell>
        <mxCell id="_fzZJUct6lHMbTLoicCk-5" style="edgeStyle=orthogonalEdgeStyle;rounded=0;orthogonalLoop=1;jettySize=auto;html=1;exitX=0.5;exitY=1;exitDx=0;exitDy=0;" edge="1" parent="_fzZJUct6lHMbTLoicCk-9" source="SiOPo3hdNnwG7R91HLxE-3">
          <mxGeometry relative="1" as="geometry">
            <mxPoint x="235.18181818181802" y="610" as="targetPoint" />
          </mxGeometry>
        </mxCell>
        <mxCell id="SiOPo3hdNnwG7R91HLxE-3" value="" style="swimlane;startSize=0;" vertex="1" parent="_fzZJUct6lHMbTLoicCk-9">
          <mxGeometry x="130" y="290" width="210" height="200" as="geometry" />
        </mxCell>
        <mxCell id="SiOPo3hdNnwG7R91HLxE-4" value="&lt;font style=&quot;font-size: 36px;&quot;&gt;Back End&lt;/font&gt;&lt;div&gt;&lt;font style=&quot;font-size: 36px;&quot;&gt;python/flask&lt;/font&gt;&lt;/div&gt;" style="text;html=1;align=center;verticalAlign=middle;resizable=0;points=[];autosize=1;strokeColor=none;fillColor=none;" vertex="1" parent="SiOPo3hdNnwG7R91HLxE-3">
          <mxGeometry x="-10" y="50" width="220" height="100" as="geometry" />
        </mxCell>
        <mxCell id="_fzZJUct6lHMbTLoicCk-6" style="edgeStyle=orthogonalEdgeStyle;rounded=0;orthogonalLoop=1;jettySize=auto;html=1;" edge="1" parent="_fzZJUct6lHMbTLoicCk-9" source="SiOPo3hdNnwG7R91HLxE-5" target="_fzZJUct6lHMbTLoicCk-1">
          <mxGeometry relative="1" as="geometry" />
        </mxCell>
        <mxCell id="SiOPo3hdNnwG7R91HLxE-5" value="&lt;br&gt;&lt;div&gt;&lt;span style=&quot;font-size: 36px;&quot;&gt;Mongo DB&lt;/span&gt;&lt;/div&gt;" style="shape=cylinder3;whiteSpace=wrap;html=1;boundedLbl=1;backgroundOutline=1;size=15;" vertex="1" parent="_fzZJUct6lHMbTLoicCk-9">
          <mxGeometry x="163" y="610" width="145" height="120" as="geometry" />
        </mxCell>
        <mxCell id="_fzZJUct6lHMbTLoicCk-1" value="&lt;br&gt;&lt;div&gt;&lt;span style=&quot;font-size: 36px;&quot;&gt;Primary&amp;nbsp;&lt;/span&gt;&lt;/div&gt;" style="shape=cylinder3;whiteSpace=wrap;html=1;boundedLbl=1;backgroundOutline=1;size=15;" vertex="1" parent="_fzZJUct6lHMbTLoicCk-9">
          <mxGeometry x="163" y="790" width="145" height="120" as="geometry" />
        </mxCell>
        <mxCell id="_fzZJUct6lHMbTLoicCk-2" value="&lt;div&gt;&lt;span style=&quot;font-size: 31px; background-color: initial;&quot;&gt;Secondary&lt;/span&gt;&lt;/div&gt;" style="shape=cylinder3;whiteSpace=wrap;html=1;boundedLbl=1;backgroundOutline=1;size=15;" vertex="1" parent="_fzZJUct6lHMbTLoicCk-9">
          <mxGeometry x="330" y="850" width="145" height="120" as="geometry" />
        </mxCell>
        <mxCell id="_fzZJUct6lHMbTLoicCk-3" value="&lt;div&gt;&lt;span style=&quot;font-size: 31px; background-color: initial;&quot;&gt;Secondary&lt;/span&gt;&lt;/div&gt;" style="shape=cylinder3;whiteSpace=wrap;html=1;boundedLbl=1;backgroundOutline=1;size=15;" vertex="1" parent="_fzZJUct6lHMbTLoicCk-9">
          <mxGeometry y="850" width="145" height="120" as="geometry" />
        </mxCell>
        <mxCell id="_fzZJUct6lHMbTLoicCk-7" style="edgeStyle=orthogonalEdgeStyle;rounded=0;orthogonalLoop=1;jettySize=auto;html=1;exitX=0;exitY=0;exitDx=0;exitDy=37.5;exitPerimeter=0;entryX=0.5;entryY=0;entryDx=0;entryDy=0;entryPerimeter=0;" edge="1" parent="_fzZJUct6lHMbTLoicCk-9" source="_fzZJUct6lHMbTLoicCk-1" target="_fzZJUct6lHMbTLoicCk-3">
          <mxGeometry relative="1" as="geometry" />
        </mxCell>
        <mxCell id="_fzZJUct6lHMbTLoicCk-8" style="edgeStyle=orthogonalEdgeStyle;rounded=0;orthogonalLoop=1;jettySize=auto;html=1;exitX=1;exitY=0;exitDx=0;exitDy=37.5;exitPerimeter=0;entryX=0.5;entryY=0;entryDx=0;entryDy=0;entryPerimeter=0;" edge="1" parent="_fzZJUct6lHMbTLoicCk-9" source="_fzZJUct6lHMbTLoicCk-1" target="_fzZJUct6lHMbTLoicCk-2">
          <mxGeometry relative="1" as="geometry" />
        </mxCell>
        <mxCell id="_fzZJUct6lHMbTLoicCk-10" value="&lt;font style=&quot;font-size: 21px;&quot;&gt;Replica Sets&lt;/font&gt;" style="text;html=1;align=center;verticalAlign=middle;resizable=0;points=[];autosize=1;strokeColor=none;fillColor=none;" vertex="1" parent="_fzZJUct6lHMbTLoicCk-9">
          <mxGeometry y="763" width="140" height="40" as="geometry" />
        </mxCell>
      </root>
    </mxGraphModel>
  </diagram>
</mxfile>
